<svg width="160" height="181" viewBox="0 0 160 181" fill="none" xmlns="http://www.w3.org/2000/svg">
<g id="arrow_2" filter="url(#filter0_d_351_1693)">
<mask id="mask0_351_1693" style="mask-type:alpha" maskUnits="userSpaceOnUse" x="18" y="22" width="183" height="181">
<path id="Union" fill-rule="evenodd" clip-rule="evenodd" d="M106.45 127.342C105.712 130.471 105.324 133.648 105.342 136.813C95.5161 136.094 86.2924 133.083 78.9731 127.237C64.9969 116.074 60.6864 103.791 60.998 90.2564C61.188 82.0029 63.0982 73.179 66.0592 63.6987L70.9173 85.6488C72.022 90.6399 76.9659 93.629 81.9597 92.3251C86.9536 91.0212 90.1064 85.918 89.0018 80.9269L77.6794 29.77C77.0145 26.7656 74.8992 24.3477 72.0352 23.3184C68.6018 22.0845 64.8428 22.9832 62.3048 24.8365L22.7657 60.4789C18.5494 63.5577 17.4782 69.409 20.3734 73.5482C23.2685 77.6873 29.0334 78.5469 33.2498 75.4681L48.6033 58.0821C45.1809 68.9438 42.7264 79.8873 42.4814 90.5293C42.0422 109.602 48.684 127.309 67.1412 142.051C79.8482 152.2 95.536 155.978 111.09 155.641C112.45 157.66 114.071 159.611 115.972 161.471C123.956 169.287 132.879 172.334 141.879 172.127C150.448 171.93 158.408 168.796 164.842 165.668C167.979 164.142 170.976 162.502 173.6 161.067L173.904 160.901C174.522 160.563 175.114 160.239 175.683 159.931C173.021 163.741 169.916 168.787 168.307 174.905C166.516 181.718 166.722 189.285 170.23 197.397C172.245 202.058 177.69 204.045 182.39 201.834C187.091 199.623 189.268 194.053 187.253 189.392C185.389 185.082 185.477 181.795 186.199 179.05C186.997 176.013 188.726 173.054 191.112 169.701C191.697 168.879 192.292 168.072 192.916 167.229L193.078 167.01C193.638 166.254 194.233 165.45 194.796 164.665C195.98 163.014 197.399 160.933 198.443 158.691C199.493 156.436 200.577 153.156 200.008 149.399C199.404 145.413 197.189 142.445 194.588 140.368C190.881 137.406 186.597 136.935 183.032 137.377C179.695 137.791 176.486 139.046 173.832 140.267C171.108 141.519 168.23 143.093 165.557 144.555L165.391 144.646C162.67 146.134 160.03 147.578 157.317 148.897C151.697 151.63 146.69 153.346 142.157 153.45C139.857 153.503 137.489 153.149 135.039 152.031C139.866 150.692 144.498 149.03 148.821 147.129C161.077 141.741 172.161 133.905 178.957 124.457C186.011 114.65 188.816 102.216 181.707 90.5918C174.937 79.5228 163.04 78.0259 152.814 80.5589C142.789 83.0421 132.566 89.5528 124.393 97.5626C116.206 105.586 109.113 116.057 106.45 127.342ZM165.841 100.83C164.56 98.7346 162.225 97.2948 156.584 98.692C150.742 100.139 143.461 104.426 137.039 110.72C130.63 117 126.035 124.34 124.461 131.011C124.086 132.597 123.876 134.149 123.856 135.664C130.07 134.494 136.209 132.58 141.966 130.049C152.233 125.535 160.008 119.565 164.107 113.867C167.947 108.528 168.07 104.474 165.841 100.83ZM181.794 151.133C181.794 151.133 181.788 151.145 181.781 151.168C181.79 151.144 181.794 151.133 181.794 151.133Z" fill="#FF825A"/>
</mask>
<g mask="url(#mask0_351_1693)">
<path id="Union_2" fill-rule="evenodd" clip-rule="evenodd" d="M106.45 127.342C105.712 130.471 105.324 133.648 105.342 136.813C95.5161 136.094 86.2924 133.083 78.9731 127.237C64.9969 116.074 60.6864 103.791 60.998 90.2564C61.188 82.0029 63.0982 73.179 66.0592 63.6987L70.9173 85.6488C72.022 90.6399 76.9659 93.629 81.9597 92.3251C86.9536 91.0212 90.1064 85.918 89.0018 80.9269L77.6794 29.77C77.0145 26.7656 74.8992 24.3477 72.0352 23.3184C68.6018 22.0845 64.8428 22.9832 62.3048 24.8365L22.7657 60.4789C18.5494 63.5577 17.4782 69.409 20.3734 73.5482C23.2685 77.6873 29.0334 78.5469 33.2498 75.4681L48.6033 58.0821C45.1809 68.9438 42.7264 79.8873 42.4814 90.5293C42.0422 109.602 48.684 127.309 67.1412 142.051C79.8482 152.2 95.536 155.978 111.09 155.641C112.45 157.66 114.071 159.611 115.972 161.471C123.956 169.287 132.879 172.334 141.879 172.127C150.448 171.93 158.408 168.796 164.842 165.668C167.979 164.142 170.976 162.502 173.6 161.067L173.904 160.901C174.522 160.563 175.114 160.239 175.683 159.931C173.021 163.741 169.916 168.787 168.307 174.905C166.516 181.718 166.722 189.285 170.23 197.397C172.245 202.058 177.69 204.045 182.39 201.834C187.091 199.623 189.268 194.053 187.253 189.392C185.389 185.082 185.477 181.795 186.199 179.05C186.997 176.013 188.726 173.054 191.112 169.701C191.697 168.879 192.292 168.072 192.916 167.229L193.078 167.01C193.638 166.254 194.233 165.45 194.796 164.665C195.98 163.014 197.399 160.933 198.443 158.691C199.493 156.436 200.577 153.156 200.008 149.399C199.404 145.413 197.189 142.445 194.588 140.368C190.881 137.406 186.597 136.935 183.032 137.377C179.695 137.791 176.486 139.046 173.832 140.267C171.108 141.519 168.23 143.093 165.557 144.555L165.391 144.646C162.67 146.134 160.03 147.578 157.317 148.897C151.697 151.63 146.69 153.346 142.157 153.45C139.857 153.503 137.489 153.149 135.039 152.031C139.866 150.692 144.498 149.03 148.821 147.129C161.077 141.741 172.161 133.905 178.957 124.457C186.011 114.65 188.816 102.216 181.707 90.5918C174.937 79.5228 163.04 78.0259 152.814 80.5589C142.789 83.0421 132.566 89.5528 124.393 97.5626C116.206 105.586 109.113 116.057 106.45 127.342ZM165.841 100.83C164.56 98.7346 162.225 97.2948 156.584 98.692C150.742 100.139 143.461 104.426 137.039 110.72C130.63 117 126.035 124.34 124.461 131.011C124.086 132.597 123.876 134.149 123.856 135.664C130.07 134.494 136.209 132.58 141.966 130.049C152.233 125.535 160.008 119.565 164.107 113.867C167.947 108.528 168.07 104.474 165.841 100.83ZM181.794 151.133C181.794 151.133 181.788 151.145 181.781 151.168C181.79 151.144 181.794 151.133 181.794 151.133Z" fill="white"/>
<path id="Intersect" fill-rule="evenodd" clip-rule="evenodd" d="M135.19 151.989C135.12 152.007 135.051 152.024 134.982 152.042C134.271 152.222 133.599 152.394 132.957 152.559C125.667 154.425 122.391 155.264 111.107 155.666C112.463 157.676 114.078 159.618 115.971 161.471C123.956 169.287 132.878 172.334 141.879 172.127C150.448 171.93 158.407 168.796 164.841 165.668C165.172 165.507 165.502 165.345 165.829 165.182L161.654 146.673C160.213 147.442 158.776 148.188 157.317 148.897C151.697 151.63 146.69 153.346 142.157 153.451C139.857 153.504 137.489 153.149 135.039 152.031C135.089 152.017 135.14 152.003 135.19 151.989Z" fill="white"/>
<path id="Rectangle 36361" d="M131.319 103.183L144.301 121.957C144.301 121.957 151.389 130.553 123.848 135.65C115.046 137.883 99.5306 138.335 86.093 131.781C60.4964 119.02 73.582 97.9287 73.582 97.9287L131.319 103.183Z" fill="white"/>
</g>
</g>
<defs>
<filter id="filter0_d_351_1693" x="11.7461" y="9.75037" width="201.419" height="199.987" filterUnits="userSpaceOnUse" color-interpolation-filters="sRGB">
<feFlood flood-opacity="0" result="BackgroundImageFix"/>
<feColorMatrix in="SourceAlpha" type="matrix" values="0 0 0 0 0 0 0 0 0 0 0 0 0 0 0 0 0 0 127 0" result="hardAlpha"/>
<feOffset dx="3" dy="-3"/>
<feGaussianBlur stdDeviation="5"/>
<feComposite in2="hardAlpha" operator="out"/>
<feColorMatrix type="matrix" values="0 0 0 0 0.705882 0 0 0 0 0.843137 0 0 0 0 1 0 0 0 0.4 0"/>
<feBlend mode="normal" in2="BackgroundImageFix" result="effect1_dropShadow_351_1693"/>
<feBlend mode="normal" in="SourceGraphic" in2="effect1_dropShadow_351_1693" result="shape"/>
</filter>
</defs>
</svg>
