<svg width="328" height="323" viewBox="0 0 328 323" fill="none" xmlns="http://www.w3.org/2000/svg">
<path fill-rule="evenodd" clip-rule="evenodd" d="M138.903 155.185C133.328 153.726 127.653 152.894 121.984 152.789C123.697 135.217 129.49 118.824 140.28 105.965C160.884 81.4105 183.077 74.2206 207.309 75.3652C222.086 76.0632 237.811 79.8674 254.667 85.5826L215.133 93.3348C206.144 95.0976 200.575 103.825 202.695 112.828C204.814 121.83 213.82 127.7 222.809 125.937L314.945 107.87C320.356 106.809 324.779 103.124 326.747 98.0377C329.107 91.9403 327.659 85.1673 324.449 80.5403L262.31 8.16352C256.977 0.476715 246.541 -1.69559 239.001 3.31155C231.46 8.31868 229.671 18.6092 235.003 26.296L265.485 54.5543C246.175 47.9528 226.676 43.0815 207.622 42.1816C173.473 40.5686 141.464 51.7 114.255 84.1267C95.5223 106.451 88.0747 134.391 88.0047 162.27C84.3288 164.62 80.7645 167.439 77.3492 170.763C63.001 184.729 57.1565 200.581 57.1375 216.714C57.1195 232.074 62.388 246.468 67.714 258.13C70.3111 263.817 73.1187 269.257 75.5769 274.02L75.861 274.571C76.4398 275.693 76.9936 276.768 77.522 277.801C70.8114 272.867 61.9062 267.085 51.0159 263.938C38.888 260.434 25.3225 260.475 10.6381 266.408C2.2009 269.816 -1.59344 279.484 2.16323 288.001C5.91991 296.518 15.805 300.659 24.2423 297.25C32.0446 294.098 37.9288 294.399 42.8156 295.811C48.2208 297.373 53.4467 300.598 59.3497 305.017C60.7976 306.102 62.2177 307.203 63.7009 308.357L64.086 308.657C65.4158 309.692 66.8306 310.794 68.2125 311.836C71.1192 314.027 74.785 316.66 78.7574 318.628C82.7504 320.606 88.5801 322.691 95.3347 321.834C102.503 320.925 107.915 317.085 111.749 312.516C117.215 306.002 118.244 298.349 117.607 291.942C117.011 285.947 114.901 280.143 112.83 275.336C110.703 270.401 108.009 265.177 105.506 260.325L105.35 260.024C102.802 255.086 100.33 250.294 98.0842 245.377C93.4318 235.19 90.5737 226.146 90.5832 218.021C90.5881 213.898 91.3255 209.671 93.4351 205.331C95.6248 214.035 98.4001 222.405 101.619 230.234C110.742 252.423 124.298 272.618 140.93 285.202C158.193 298.263 180.346 303.829 201.479 291.596C221.602 279.947 224.799 258.7 220.704 240.27C216.69 222.203 205.469 203.607 191.474 188.618C177.456 173.604 159.004 160.444 138.903 155.185ZM183.825 262.73C187.634 260.525 190.315 256.405 188.056 246.238C185.717 235.71 178.353 222.481 167.356 210.703C156.382 198.949 143.433 190.399 131.55 187.291C128.724 186.551 125.953 186.107 123.24 186.006C125.066 197.189 128.229 208.269 132.515 218.693C140.157 237.281 150.514 251.468 160.545 259.057C169.943 266.169 177.201 266.565 183.825 262.73ZM93.018 289.128C93.018 289.128 92.9963 289.118 92.9552 289.103C92.9978 289.122 93.018 289.128 93.018 289.128Z" fill="white"/>
</svg>
