<svg width="279" height="337" viewBox="0 0 279 337" fill="none" xmlns="http://www.w3.org/2000/svg">
<path fill-rule="evenodd" clip-rule="evenodd" d="M50.7041 32.5784C61.1606 34.1524 71.679 34.5651 82.0458 33.6499C82.3465 66.0503 74.9718 97.0954 57.7898 122.665C24.9808 171.491 -14.1152 188.939 -58.5584 191.577C-85.6611 193.185 -115.098 189.31 -146.971 182.168L-76.3417 160.311C-60.2815 155.341 -51.8211 138.33 -57.4447 122.314C-63.0684 106.299 -80.6466 97.3449 -96.7067 102.315L-261.316 153.254C-270.983 156.245 -278.336 163.832 -280.936 173.497C-284.052 185.084 -280.09 197.161 -273.33 204.979L-145.82 324.936C-134.59 337.923 -115.122 339.851 -102.338 329.243C-89.5546 318.636 -88.2957 299.508 -99.5265 286.521L-160.661 240.899C-124.136 249.18 -87.6041 254.266 -52.658 252.192C9.97241 248.476 66.2129 221.92 109.541 157.44C139.371 113.049 147.512 60.6096 142.203 9.72161C148.452 4.71736 154.407 -1.12155 159.991 -7.85403C183.45 -36.1378 191.024 -66.2049 187.912 -95.6488C184.949 -123.681 172.528 -148.921 160.534 -169.164C154.686 -179.035 148.501 -188.415 143.087 -196.627L142.461 -197.576C141.186 -199.511 139.966 -201.364 138.8 -203.146C152.008 -195.452 169.386 -186.638 189.873 -183.019C212.687 -178.99 237.434 -181.711 263.074 -195.4C277.805 -203.266 282.844 -221.648 274.328 -236.457C265.811 -251.267 246.965 -256.896 232.233 -249.03C218.61 -241.756 207.814 -241.157 198.621 -242.781C188.453 -244.577 178.287 -249.442 166.653 -256.356C163.8 -258.052 160.993 -259.785 158.062 -261.602L157.3 -262.074C154.672 -263.704 151.875 -265.438 149.15 -267.07C143.419 -270.502 136.216 -274.592 128.583 -277.409C120.91 -280.24 109.866 -282.907 97.7068 -280.026C84.804 -276.969 75.6756 -268.906 69.5701 -259.82C60.8666 -246.868 60.4813 -232.701 62.8936 -221.135C65.1511 -210.311 70.1331 -200.131 74.8501 -191.763C79.6924 -183.173 85.6273 -174.165 91.1422 -165.799L91.4846 -165.28C97.0975 -156.765 102.544 -148.504 107.601 -139.968C118.078 -122.286 125.057 -106.34 126.624 -91.512C127.419 -83.9863 126.898 -76.1296 123.895 -67.7971C118.201 -83.2548 111.504 -97.9873 104.105 -111.645C83.1293 -150.357 54.4517 -184.567 21.6474 -204.286C-12.4025 -224.754 -53.9131 -230.589 -90.0906 -204.144C-124.54 -178.963 -126.23 -139.567 -115.163 -106.734C-104.315 -74.5479 -80.2117 -42.8023 -51.7497 -18.1791C-23.2409 6.48455 12.9962 26.9019 50.7041 32.5784ZM-52.2466 -154.912C-58.7668 -150.146 -62.8548 -142.104 -56.7504 -123.993C-50.4281 -105.236 -34.4107 -82.5321 -12.0456 -63.1836C10.2727 -43.8755 35.5696 -30.799 57.8603 -27.4435C63.1621 -26.6454 68.3049 -26.3757 73.2742 -26.7207C67.7621 -46.7711 59.829 -66.3728 49.9751 -84.5593C32.4041 -116.988 10.7367 -140.859 -9.04696 -152.751C-27.585 -163.895 -40.9055 -163.202 -52.2466 -154.912ZM108.313 -220.795C108.313 -220.795 108.355 -220.781 108.433 -220.762C108.351 -220.788 108.313 -220.795 108.313 -220.795Z" fill="white"/>
</svg>
