<svg width="112" height="145" viewBox="0 0 112 145" fill="none" xmlns="http://www.w3.org/2000/svg">
<path fill-rule="evenodd" clip-rule="evenodd" d="M-29.6514 113.151C-28.7357 108.206 -28.3712 103.212 -28.6403 98.2698C-13.2338 98.6456 1.40563 102.648 13.2853 111.225C35.9695 127.603 43.6379 146.466 44.1801 167.635C44.5107 180.544 42.1973 194.475 38.2921 209.512L29.0332 175.588C26.9278 167.874 18.9766 163.58 11.2736 165.997C3.57063 168.414 -0.967118 176.626 1.13823 184.34L22.7171 263.403C23.9844 268.046 27.4732 271.663 32.0259 273.054C37.4839 274.72 43.2883 273.03 47.1125 269.942L106.176 211.25C112.529 206.12 113.758 196.897 108.92 190.65C104.082 184.403 95.0097 183.499 88.6565 188.629L65.9911 216.959C70.5121 199.73 73.5148 182.446 73.0885 165.801C72.3244 135.969 60.6014 108.81 30.6442 87.1816C10.02 72.2913 -14.7768 67.5817 -39.0516 69.2909C-41.3304 66.24 -44.0106 63.316 -47.1215 60.5538C-60.1908 48.9496 -74.3621 44.8681 -88.4082 45.8759C-101.781 46.8355 -113.978 52.3359 -123.792 57.7131C-128.578 60.3352 -133.136 63.1248 -137.126 65.5672L-137.588 65.8495C-138.527 66.4246 -139.428 66.975 -140.294 67.5005C-136.425 61.3453 -131.957 53.2256 -129.909 43.5451C-127.628 32.7645 -128.525 20.9575 -134.622 8.55042C-138.125 1.42169 -146.783 -1.2677 -153.959 2.54352C-161.135 6.35473 -164.112 15.2233 -160.609 22.352C-157.37 28.9444 -157.258 34.086 -158.177 38.4299C-159.193 43.2347 -161.669 47.989 -165.142 53.4085C-165.994 54.7378 -166.862 56.044 -167.773 57.4086L-168.009 57.7629C-168.826 58.9863 -169.695 60.2879 -170.515 61.5571C-172.238 64.2267 -174.297 67.5852 -175.758 71.1684C-177.227 74.7702 -178.672 79.9777 -177.497 85.8036C-176.25 91.9859 -172.564 96.4542 -168.342 99.502C-162.325 103.847 -155.597 104.257 -150.06 103.295C-144.879 102.395 -139.96 100.19 -135.907 98.0816C-131.746 95.9173 -127.369 93.2404 -123.304 90.7528L-123.051 90.5983C-118.914 88.0665 -114.9 85.6099 -110.761 83.3425C-102.188 78.6455 -94.4968 75.5832 -87.4229 75.0756C-83.8328 74.818 -80.1064 75.1916 -76.1936 76.7526C-83.6326 79.2115 -90.743 82.1591 -97.3536 85.458C-116.091 94.809 -132.812 107.893 -142.711 123.171C-152.986 139.029 -156.424 158.668 -144.433 176.289C-133.014 193.068 -114.314 194.502 -98.5298 189.767C-83.0561 185.125 -67.5798 174.176 -55.4194 161.04C-43.239 147.883 -32.9534 130.985 -29.6514 113.151ZM-120.424 159.088C-118.263 162.263 -114.505 164.335 -105.799 161.723C-96.7812 159.018 -85.7323 151.768 -76.1768 141.446C-66.6413 131.146 -60.0204 119.331 -58.0685 108.788C-57.6042 106.281 -57.3937 103.841 -57.4782 101.473C-67.0974 103.772 -76.5422 107.229 -85.345 111.622C-101.042 119.456 -112.735 129.373 -118.705 138.587C-124.299 147.221 -124.183 153.564 -120.424 159.088ZM-149.172 81.7101C-149.172 81.7101 -149.164 81.6906 -149.154 81.6538C-149.167 81.6921 -149.172 81.7101 -149.172 81.7101Z" fill="white"/>
</svg>
