<svg width="306" height="62" viewBox="0 0 306 62" fill="none" xmlns="http://www.w3.org/2000/svg">
<path fill-rule="evenodd" clip-rule="evenodd" d="M147.261 46.8507C148.484 51.6072 150.215 56.1796 152.487 60.4463C138.687 66.4508 124.075 68.9275 110.026 66.2179C83.1986 61.0438 68.6477 47.4912 59.4601 28.9662C53.8573 17.6691 50.1758 4.37934 47.4494 -10.5443L54.8174 -5.7468C59.855 0.219012 68.6634 0.751458 74.4914 -4.55755C80.3195 -9.86656 80.9603 -19.0066 75.9227 -24.9724L39.0759 -64.6803C36.0436 -68.2714 31.4661 -70.0395 26.8621 -69.3982C21.3425 -68.6293 16.897 -64.745 14.7803 -60.4367L-4.96701 -18.575C-8.48337 -11.4176 -5.7776 -2.7437 1.07656 0.798684C7.93068 4.34109 16.3376 1.41057 19.854 -5.7468C22.9372 11.3726 27.3874 27.9155 34.6117 42.4819C47.5591 68.5878 69.1132 87.8196 104.542 94.6526C128.933 99.3568 152.831 93.328 173.628 81.8292C176.901 83.5939 180.477 85.0811 184.369 86.2478C200.717 91.1493 214.947 88.935 226.972 82.2647C238.421 75.9142 246.961 66.0256 253.441 57.2263C256.601 52.9354 259.49 48.59 262.02 44.7854L262.312 44.3456C262.908 43.4496 263.479 42.5918 264.03 41.7701C263.135 48.8131 262.518 57.8421 264.686 67.2582C267.101 77.7443 272.752 87.8323 283.255 96.3128C289.29 101.185 298.064 100.006 302.852 93.679C307.64 87.3518 306.629 78.2725 300.594 73.3999C295.013 68.8939 292.799 64.3862 291.826 60.1609C290.75 55.4874 290.987 50.2585 291.833 44.0301C292.041 42.5023 292.273 40.9882 292.518 39.405L292.582 38.994C292.802 37.5744 293.036 36.0642 293.24 34.6031C293.668 31.5298 294.111 27.7084 293.931 23.9338C293.75 20.1397 292.887 14.9335 289.45 10.257C285.803 5.29432 280.7 2.85327 275.708 1.89041C268.591 0.517846 262.464 2.9223 257.956 6.05128C253.737 8.97949 250.288 12.9559 247.565 16.4903C244.77 20.1188 241.995 24.29 239.418 28.1653L239.258 28.4059C236.635 32.3501 234.09 36.177 231.358 39.8874C225.697 47.5737 220.145 53.4497 214.089 56.809C211.015 58.5139 207.561 59.7158 203.453 59.9428C209.03 54.7051 214.115 49.1698 218.613 43.5289C231.362 27.5396 240.789 9.07335 243.272 -8.52949C245.848 -26.8007 240.815 -45.6083 222.947 -56.2815C205.932 -66.445 188.781 -60.0231 176.749 -49.3369C164.954 -38.8609 155.751 -22.7977 150.384 -6.16225C145.008 10.5006 142.85 29.6978 147.261 46.8507ZM208.759 -31.1715C205.539 -33.0951 201.359 -33.3847 194.722 -27.4901C187.848 -21.3851 181.045 -10.4189 176.828 2.65308C172.619 15.6977 171.616 28.8858 174.223 39.0255C174.843 41.4372 175.661 43.6851 176.709 45.7473C184.283 39.7543 191.226 32.8074 197.215 25.2958C207.895 11.9016 214.172 -1.69208 215.669 -12.308C217.072 -22.2555 214.36 -27.8256 208.759 -31.1715ZM266.048 25.5336C266.048 25.5336 266.049 25.554 266.055 25.5908C266.051 25.5513 266.048 25.5336 266.048 25.5336Z" fill="#ffffff8e" fill-opacity="0.3"/>
</svg>
